 <svg
    height="100%"
    style={{
      fillRule: 'evenodd',
      clipRule: 'evenodd',
      strokeLinejoin: 'round',
      strokeMiterlimit: 2,
    }}
    version="1.1"
    viewBox="0 0 512 512"
    width="100%"
    xmlns="http://www.w3.org/2000/svg"
    xmlnsSerif="http://www.serif.com/"
    xmlnsXlink="http://www.w3.org/1999/xlink"
  >
    <g>
      <path
        d="M512,256C512,394.615 397.385,509.231 256,509.231C114.615,509.231 0,394.615 0,256C0,128.223 93.616,22.315 216,3.11L216,181.001L151,181.001L151,255.001L216,255.001L216,311.401C216,375.561 254.219,411 312.695,411C340.704,411 370,406 370,406L370,469L299,469L299,255.001L370,255.001L370,181.001L299,181.001L299,106.111C299,85.866 328.297,66.133 369.016,66.133L401.297,66.133L401.297,0.133L340.297,0.133C303.297,0.133 283,19.997 283,51.547L283,106.133L216,106.133L216,181.001L401,181.001L390.65,255.001L216,255.001L216,497.891C338.385,478.686 432,372.777 432,245Z"
        fill="#1877f2"
        fillRule="nonzero"
      />
      <path
        d="M355.65,330L367,256.001L296,256.001L296,207.979C296,187.734 305.917,168 337.719,168L370,168L370,105C370,84.755 359.083,65.022 327.281,65.022L294,65.022L294,0.133L326.281,0.133C363.281,0.133 383.576,35.573 383.576,99.733L383.576,147.755L443.226,147.755L431.876,221.755L371.226,221.755L371.226,400.645C384.259,398.6 397.618,397.535 411.226,397.535C424.834,397.535 438.192,398.6 451.226,400.645L451.226,221.755L511,221.755L522.35,147.755L451.226,147.755L451.226,99.733C451.226,35.573 431.931,0.133 394.931,0.133L362.65,0.133L362.65,65.022L394.931,65.022C426.733,65.022 436.65,84.755 436.65,105L436.65,168L408.65,168L408.65,256.001L481.65,256.001L471.3,330L411.65,330L411.65,497.891C534.035,478.686 627.65,372.777 627.65,245C627.65,117.223 534.035,11.315 411.65,3.11Z"
        fill="#fff"
        fillRule="nonzero"
      />
    </g>
  </svg>